<svg width="400" height="500" viewBox="0 0 400 500" fill="none" xmlns="http://www.w3.org/2000/svg">
  <rect width="400" height="500" rx="36" fill="#141721"/>
  <rect x="62" y="70" width="276" height="300" rx="28" fill="#0B0E16" stroke="#D2A24C" stroke-opacity="0.25"/>
  <path d="M124 156C124 156 155 126 200 126C245 126 276 156 276 156V278C276 278 247 308 200 308C153 308 124 278 124 278V156Z" fill="#D2A24C" fill-opacity="0.18"/>
  <path d="M148 170C148 170 164 156 200 156C236 156 252 170 252 170" stroke="#F3D8A7" stroke-width="8" stroke-linecap="round"/>
  <circle cx="200" cy="212" r="38" fill="#986234"/>
  <path d="M146 232C157 252 174 262 200 262C226 262 243 252 254 232" stroke="#F8EFE5" stroke-opacity="0.75" stroke-width="6" stroke-linecap="round"/>
</svg>
